<svg xmlns="http://www.w3.org/2000/svg" width="860" height="860" viewBox="0 0 860 860" version="1.1">
	<path d="M 370.500 21.498 C 332.181 25.452, 299.453 34.048, 259 50.785 C 230.190 62.704, 214.759 70.856, 189.500 87.498 C 157.470 108.602, 135.923 127.522, 107.439 159.559 C 96.623 171.725, 91.521 178.611, 75.259 203 C 53.297 235.935, 40.807 260.068, 32.382 285.845 C 27.980 299.312, 21.639 323.779, 19.513 335.500 C 18.615 340.450, 17.463 346.525, 16.953 349 C 15.032 358.322, 12.051 382.066, 10.877 397.403 C 9.106 420.527, 11.411 459.968, 16.114 487 C 22.032 521.016, 33.298 556.260, 49.313 590.862 C 58.733 611.214, 68.045 627.623, 82.148 648.721 C 106.616 685.326, 125.410 707.231, 157.500 736.550 C 174.036 751.658, 201.631 772.052, 223.197 785.105 C 237.067 793.499, 264.388 807.306, 279 813.306 C 299.910 821.892, 333.663 831.964, 356.500 836.433 C 385.165 842.043, 425.885 844.476, 465 842.917 C 486.048 842.078, 492.857 841.315, 526.249 836.052 C 570.577 829.066, 631.917 805.391, 667.242 781.633 C 707.671 754.444, 712.724 750.407, 738.145 724.995 C 760.291 702.856, 786.468 671.616, 798.815 652.589 C 816.343 625.578, 840.761 565.750, 847.419 533.500 C 853.180 505.595, 855.595 457.719, 852.944 423.950 C 848.893 372.339, 834.047 317.057, 812.540 273.500 C 802.468 253.101, 778.940 215.184, 763.520 194.500 C 731.111 151.029, 684.061 108.760, 635.500 79.489 C 622.211 71.479, 590.495 56.124, 573.500 49.474 C 520.549 28.752, 477.872 20.954, 414.500 20.418 C 393.875 20.244, 379.149 20.605, 370.500 21.498 M 397 49.683 C 359.452 51.816, 331.439 56.628, 307 65.141 C 283.024 73.493, 256.158 83.956, 244.501 89.481 C 232.328 95.252, 198.965 116.367, 187 125.874 C 144.524 159.623, 107.024 203.671, 84.731 246 C 69.863 274.231, 63.609 290.365, 56.045 320 C 47.011 355.397, 45.117 368.810, 44.328 403 C 43.445 441.263, 45.452 466.115, 52.077 498.925 C 58.459 530.534, 65.406 549.793, 83.486 586 C 103.025 625.130, 124.992 657.226, 150.882 684.470 C 187.008 722.487, 219.697 747.142, 263.854 769.681 C 300.557 788.414, 329.569 798.072, 371.131 805.394 C 405.705 811.484, 436.967 813.561, 469.779 811.947 C 493.888 810.762, 510.482 808.459, 535.500 802.825 C 567.614 795.594, 591.686 787.164, 618.410 773.788 C 635.866 765.051, 643.351 760.553, 664 746.388 C 684.582 732.269, 698.594 720.700, 716.342 703.171 C 743.126 676.718, 760.087 655.104, 780.040 622 C 803.620 582.878, 815.622 545.921, 821.122 495.500 C 822.717 480.875, 822.707 421.579, 821.107 408.500 C 815.467 362.400, 806.632 330.530, 789.978 296.218 C 763.693 242.060, 743.428 212.583, 707.091 175.655 C 683.268 151.444, 665.470 136.401, 642.708 121.239 C 629.099 112.174, 628.033 111.513, 612 102.207 C 572.214 79.113, 531.782 64.952, 479 55.624 C 460.644 52.380, 449.898 51.194, 428 49.996 C 410.927 49.062, 408.379 49.036, 397 49.683 M 385 91.157 C 362.310 93.270, 327.740 100.396, 309.500 106.720 C 290.219 113.405, 252.856 130.987, 240.995 138.957 C 206.737 161.977, 181.377 184.902, 154.329 217.304 C 128.816 247.866, 113.264 275.211, 100.155 312.558 C 87.697 348.049, 83.556 375.760, 83.575 423.500 C 83.589 458.632, 84.642 468.262, 91.451 495.529 C 108.669 564.475, 139.153 617.925, 191 670.075 C 212.632 691.834, 232.476 708.226, 252 720.465 C 291.855 745.448, 343.606 763.403, 390.362 768.470 C 426.821 772.420, 457.475 772.785, 483 769.574 C 555.504 760.453, 585.511 749.110, 645.319 708.215 C 652.920 703.018, 661.695 696.437, 664.819 693.591 C 667.944 690.744, 674.100 685.313, 678.500 681.521 C 713.589 651.282, 749.699 601.708, 765.466 562.126 C 772.607 544.199, 777.278 520.804, 780.453 487.063 C 783.043 459.545, 782.183 435.702, 777.423 403 C 773.361 375.093, 768.455 356.099, 758.309 329 C 744.334 291.675, 731.419 268.144, 705.619 233 C 677.682 194.946, 646.771 166.910, 604.500 141.286 C 581.931 127.605, 542.530 110.237, 519 103.596 C 480.496 92.729, 424.214 87.504, 385 91.157 M 388 120.045 C 371.312 121.641, 341.058 127.843, 322 133.574 C 304.838 138.735, 293.684 143.286, 275.480 152.555 C 245.442 167.849, 224.142 183.990, 198.752 210.699 C 190.090 219.811, 180.043 231.242, 176.424 236.101 C 156.321 263.102, 136.504 297.951, 128.999 319.500 C 123.361 335.690, 117.355 364.155, 114.967 386 C 114.336 391.775, 113.806 405.050, 113.791 415.500 C 113.740 450.474, 117.805 474.822, 131.407 521 C 133.815 529.173, 135.279 532.597, 136.467 532.837 C 139.326 533.412, 145.301 528.599, 155.707 517.337 C 161.215 511.377, 180.521 490.574, 198.611 471.109 C 249.019 416.867, 257.286 407.815, 274 388.553 C 282.525 378.729, 292.875 366.822, 297 362.093 C 301.125 357.364, 308.312 348.658, 312.972 342.747 C 317.632 336.836, 321.744 332, 322.110 332 C 322.475 332, 325.348 335.185, 328.493 339.077 C 331.638 342.970, 337.651 350.109, 341.856 354.941 C 346.060 359.773, 350.760 365.210, 352.300 367.023 L 355.099 370.319 359.618 365.909 C 362.103 363.484, 367.913 356.550, 372.529 350.500 C 397.122 318.267, 403.013 310.641, 410.381 301.500 C 414.815 296, 422.505 286.817, 427.471 281.093 C 432.437 275.370, 438.872 267.832, 441.772 264.343 C 444.672 260.854, 447.662 258, 448.418 258 C 449.174 258, 452.750 262.163, 456.366 267.250 C 459.982 272.337, 465.991 280.200, 469.720 284.723 C 473.449 289.245, 481 298.465, 486.500 305.211 C 515.930 341.307, 542.099 370, 545.588 370 C 547.035 370, 549.783 368.122, 552.905 365 C 555.667 362.238, 558.826 360, 559.964 360 C 561.998 360, 564.530 363, 586.696 391.665 C 594.873 402.240, 634.181 448.482, 649.033 465 C 653.731 470.225, 664.759 482.812, 673.538 492.971 C 682.317 503.130, 694.333 516.451, 700.241 522.573 C 706.149 528.695, 714.925 538.595, 719.743 544.574 C 724.562 550.552, 729.628 556.010, 731.002 556.704 C 734.132 558.284, 734.925 557.354, 738.551 547.865 C 746.164 527.944, 752.016 487.722, 752.006 455.390 C 751.994 418.732, 747.708 391.743, 735.823 353.500 C 725.893 321.548, 711.973 293.883, 689.279 261 C 666.063 227.362, 624.215 187.728, 592 168.869 C 580.154 161.935, 547.540 145.968, 535.260 141.091 C 512.077 131.885, 480.503 123.910, 455.500 120.946 C 443.320 119.503, 399.748 118.921, 388 120.045 M 259.162 227.929 C 247.184 232.381, 239.509 239.087, 234.076 249.850 C 226.914 264.036, 227.350 278.683, 235.338 292.314 C 239.042 298.634, 248.890 307.328, 256.705 311.176 C 263.262 314.405, 263.813 314.500, 275.977 314.500 C 288.332 314.500, 288.584 314.454, 294.794 311.087 C 307.796 304.037, 313.582 296.159, 317.457 280.230 C 322.404 259.895, 309.915 236.528, 290 228.858 C 281.873 225.727, 266.345 225.260, 259.162 227.929 M 265.813 248.926 C 263.236 249.934, 259.618 251.691, 257.775 252.830 C 251.243 256.867, 247.663 267.320, 249.930 275.739 C 251.463 281.434, 260.829 291.580, 265.836 292.971 C 279.002 296.628, 292.765 290.246, 296.597 278.707 C 299.486 270.009, 296.863 261.026, 289.335 253.839 C 282.233 247.059, 274.643 245.474, 265.813 248.926 M 443.334 315.250 C 441.652 317.038, 438.458 321.200, 436.237 324.500 C 431.049 332.206, 420.891 344.958, 409.469 358.105 C 404.501 363.822, 397.991 371.650, 395.001 375.500 C 392.011 379.350, 387.188 385.164, 384.282 388.420 C 381.377 391.677, 379 394.781, 379 395.319 C 379 395.857, 385.646 403.092, 393.768 411.398 C 401.891 419.704, 419.403 437.637, 432.683 451.250 C 445.964 464.863, 457.519 476, 458.360 476 C 460.326 476, 465.039 470.920, 479.700 453 C 492.304 437.596, 517.852 404.889, 519.976 401.438 C 521.775 398.518, 520.163 395.860, 507.824 381.401 C 495.903 367.430, 491.666 362.241, 474.833 341 C 461.261 323.874, 450.237 312, 447.908 312 C 447.074 312, 445.016 313.462, 443.334 315.250 M 319.885 383.769 C 319.307 385.271, 318.583 394.150, 318.276 403.500 C 317.641 422.807, 318.893 437.981, 322.586 455.744 C 325.493 469.727, 326.926 488, 325.115 488 C 324.240 488, 324.209 488.523, 325 490 C 325.726 491.356, 325.737 492, 325.035 492 C 324.466 492, 324.108 492.337, 324.241 492.750 C 324.642 493.999, 320.987 502.766, 319.578 503.935 C 318.521 504.812, 318.240 504.035, 318.148 499.992 C 318.083 497.080, 317.196 493.385, 316.045 491.229 C 314.951 489.178, 312.209 483.147, 309.953 477.827 C 307.696 472.507, 303.633 464.288, 300.924 459.563 C 298.214 454.838, 294.189 445.725, 291.977 439.313 C 287.048 425.017, 286.604 424.383, 283.109 426.639 C 281.674 427.566, 279.600 429.292, 278.500 430.476 C 268.257 441.499, 263.970 446.404, 257.666 454.315 C 250.223 463.657, 233.595 482.043, 215.448 501 C 209.920 506.775, 202.048 515.325, 197.955 520 C 193.861 524.675, 185.335 534.173, 179.006 541.107 C 165.223 556.207, 155.640 567.068, 154.677 568.676 C 153.743 570.237, 157.466 580.050, 160.041 582.814 C 162.404 585.350, 167.922 585.641, 183.289 584.041 C 190.667 583.273, 354.156 582.211, 492.750 582.030 C 505.538 582.014, 516 581.635, 516 581.189 C 516 580.018, 515.211 579.236, 483.488 549 C 447.094 514.312, 398.835 465.568, 387.946 452.500 C 379.293 442.114, 356.373 417.528, 338.709 399.683 C 333.094 394.010, 327.375 387.718, 326 385.700 C 322.723 380.890, 321.180 380.403, 319.885 383.769 M 547.346 419.336 C 543.578 423.371, 536.311 432.259, 531.197 439.086 C 513.320 462.952, 507.183 470.609, 494.179 485.271 C 486.247 494.214, 481.291 500.595, 481.617 501.444 C 481.913 502.215, 488.083 508.158, 495.327 514.651 C 502.572 521.143, 515.700 533.485, 524.500 542.078 C 533.300 550.670, 543.875 560.318, 548 563.518 C 552.125 566.718, 558.274 571.961, 561.663 575.168 C 565.053 578.376, 568.428 581.074, 569.163 581.165 C 569.899 581.256, 601.888 581.397, 640.250 581.478 C 708.050 581.622, 710 581.574, 710 579.735 C 710 578.616, 704.245 572.259, 695.909 564.172 C 681.893 550.572, 662.124 529.407, 643.998 508.594 C 634.888 498.134, 626.985 489.311, 598.537 457.840 C 591.408 449.953, 580.158 438.100, 573.537 431.500 C 566.917 424.900, 560.243 417.813, 558.707 415.750 C 557.171 413.688, 555.528 412, 555.056 412 C 554.584 412, 551.115 415.301, 547.346 419.336 M 510 610.990 C 503.125 611.417, 434.950 612.052, 358.500 612.402 C 207.659 613.091, 185.677 613.480, 184.013 615.484 C 181.810 618.139, 185.563 622.910, 205.317 642.570 C 240.804 677.886, 263.177 693.388, 308.128 713.805 C 326.863 722.315, 358.414 732.357, 379 736.361 C 412.799 742.935, 466.086 743.852, 498.978 738.424 C 510.856 736.464, 544.604 727.881, 557.500 723.541 C 588.811 713.003, 615.491 697.408, 647.500 670.933 C 656.074 663.842, 663.270 656.857, 679.762 639.615 C 689.770 629.152, 700.400 614.700, 699.679 612.537 C 699.444 611.833, 673.210 611.490, 617.916 611.468 C 573.137 611.450, 533.350 611.161, 529.500 610.825 C 525.650 610.489, 516.875 610.563, 510 610.990 M 397.256 647.706 C 395.616 649.793, 393.526 652.962, 392.611 654.750 C 391.697 656.538, 390.275 658, 389.452 658 C 388.629 658, 386.053 656.264, 383.728 654.142 C 377.811 648.743, 375.152 647.441, 374.343 649.548 C 373.998 650.447, 374.233 656.879, 374.865 663.841 C 375.497 670.803, 376.011 678.357, 376.007 680.628 C 376 684.979, 377.752 687.416, 380.209 686.473 C 382.035 685.773, 385 679.697, 385 676.657 C 385 673.399, 387.355 670.538, 389.393 671.321 C 390.426 671.717, 391.295 671.394, 391.645 670.483 C 392.400 668.516, 395.626 668.583, 396.393 670.582 C 396.727 671.452, 397 673.511, 397 675.159 C 397 679.317, 401.786 684, 406.034 684 C 409.088 684, 409.197 683.863, 408.621 680.750 C 408.291 678.962, 407.574 671.206, 407.029 663.513 C 406.256 652.618, 405.633 648.985, 404.208 647.076 C 401.496 643.444, 400.537 643.531, 397.256 647.706" stroke="none" fill="#000000" fill-rule="evenodd"/>
</svg>